<svg version="1" xmlns="http://www.w3.org/2000/svg" width="645.333" height="645.333" viewBox="0 0 484.000000 484.000000"><path d="M224.5 1C128.7 9.1 48 70.4 15.1 160 5.2 186.6.7 212.5.8 242c0 38.8 7.7 72.1 24.7 106.6 37.3 75.8 109.9 125.9 195 134.5 14.7 1.5 41.8.7 57-1.6 78.3-11.9 146.8-62.1 181.5-133 16.1-32.8 23.5-62.7 24.7-99 3.1-94.3-49.8-182-135.1-224-24.1-11.8-49.9-19.7-75.6-23C258.8.6 236.7 0 224.5 1zm57 15.9c48.9 8.6 91.7 31.4 126 67.2 32.9 34.2 53.7 76.7 61.1 124.9 2.5 15.8 2.5 51 .1 66.5-8.2 51.4-29.3 93.3-65.2 129-35.2 35.1-77.9 56.4-128.5 64.2-15.7 2.4-50 2.4-65.5 0-49.1-7.6-91.2-28.2-125.9-61.7-35.3-34-58.2-77.1-66.7-125.5-2.7-15.4-3.7-47.6-1.9-63.7 5.6-52.2 28.7-100.6 65.4-137.4C115.9 45 162 22.3 212.5 15.5c15.4-2.1 53.6-1.3 69 1.4z"/><path d="M119.6 122.8c-.6 1 9.1 39.3 12.2 48.4 3.4 9.6 11.8 24.8 18.8 34.1 9.5 12.7 22.6 23 34.5 27.3l4.4 1.5 2.5-3.3c8.2-10.8 17.6-18.9 30.7-26.4l7.5-4.3-3.3-2c-1.9-1.2-9.1-4.7-16.1-7.8-7.1-3.2-12.8-6.4-12.8-7.1 0-1.7 1.2-1.6 15.2 1.3 9 1.9 14.6 3.7 20.9 6.9l8.6 4.3 10.9-2.8c6-1.5 15.3-3.3 20.6-4l9.7-1.2-1.7-3c-2.6-4.5-17.9-18.6-26.2-24.2-10.5-7-25.1-14-35.3-16.9-11.7-3.4-22.4-5.1-46.3-7.6-11.1-1.1-23.7-2.9-28-4.1-6.6-1.7-10.9-3.3-25-9.5-.7-.3-1.5-.1-1.8.4z"/><path d="M371 177.5c-10.3 6-30.9 11.5-54.2 14.4-9 1.1-23.9 3-33.3 4.2-55.4 6.9-82.3 25.1-99.1 66.9-10.5 26.1-15.4 51.9-15.4 80.9 0 14.5 1.4 28.3 3.5 35.8 1.3 4.5 1.9 5.3 4 5.3 1.3 0 2.6-.4 2.9-.9.4-.5-.1-4-1-7.8-1.2-5.2-1.5-10.2-1.1-21.3 1.3-40.6 19.1-69.3 52.5-84.7 8.6-4 30.3-11.3 31.4-10.6 2 1.2-.2 2.7-12.6 8.7-7.3 3.5-15.6 7.8-18.2 9.7-7 4.7-17.9 15.4-23 22.5-11.8 16.5-16.2 35.4-8.1 35.4 1.2 0 4.7-.9 7.7-2.1 8.2-3.1 20.5-5.6 42.1-8.4 21.9-2.8 27.5-3.8 37.2-6.6 35.3-10.3 64.3-40.9 77.6-81.9 4.4-13.6 14.4-52.8 14.5-57 .1-3-.2-3.5-2.4-3.7-1.4-.2-3.6.4-5 1.2z"/></svg>